<svg viewBox="0 0 24 24" fill="none" xmlns="http://www.w3.org/2000/svg"><g clip-path="url(#prefix__clip0_1_10)"><rect width="24" height="24" rx="12" fill="#fff"/><path d="M23.7 0H.3a.3.3 0 00-.3.3v23.4a.3.3 0 00.3.3h23.4a.3.3 0 00.3-.3V.3a.3.3 0 00-.3-.3z" fill="#946CE6"/><path fill-rule="evenodd" clip-rule="evenodd" d="M10.125 13.32a.354.354 0 100 .71.354.354 0 000-.71zM13.47 14.385a.354.354 0 10-.001.709.354.354 0 000-.709z" fill="#fff"/><path fill-rule="evenodd" clip-rule="evenodd" d="M18.72 15.281a.598.598 0 01-.445.008 9.16 9.16 0 00-.335-.108c-.211-.064-.564-.172-.632-.253a.333.333 0 10-.532.401c.037.05.087.09.137.13-.51.706-2.749 2.11-5.915 1.419-1.427-.312-2.387-.882-2.777-1.647-.282-.552-.218-1.121-.083-1.43.387-.806 3.185-2.66 4.971-3.709a.334.334 0 00.118-.457c-.093-.158-.306-.222-.457-.118-.144.084-.634.375-1.259.771-.211-.142-.576-.317-1.162-.374-.929-.092-3.075-.502-3.768-.795-.497-.21-1.624-.767-1.374-1.393.057-.145.33-.382.918-.607a5.27 5.27 0 011.247-.307l-.132.064c-.401.195-.84.413-1.133.67-.022-.013-.044-.027-.059-.042a.33.33 0 00-.471-.01.333.333 0 00-.01.47c.118.126.294.22.518.291.008.003.016.007.024.008.778.24 2.16.21 4.11.133.841-.033 1.635-.064 2.297-.052 2.195.044 3.845.917 5.044 2.67.736 1.076.47 2.137.05 3.059a.9.9 0 01-.145-.139.338.338 0 00-.469-.053.334.334 0 00-.053.47c.067.085.415.485.846.45h.024c.013-.002.026 0 .04-.002.294-.054.48-.04.652.069.23.144.343.23.32.303-.013.045-.048.078-.105.11zm-9.101-3.717l-.197.145a.969.969 0 01-.152-.2c.077-.024.206.004.349.055zm9.208 2.718a1.165 1.165 0 00-.507-.168c.395-.964.647-2.225-.21-3.477-1.31-1.917-3.188-2.912-5.58-2.96-.682-.013-1.486.018-2.336.052-.988.04-2.302.09-3.195.017.178-.097.368-.19.532-.27.628-.305 1.123-.543.96-.965-.087-.247-.343-.376-.763-.385-.885-.02-2.798.491-3.142 1.354-.193.486-.225 1.424 1.735 2.253.806.341 3.084.758 3.963.845a2.3 2.3 0 01.582.128c-.202.132-.409.272-.616.414-.361-.206-.951-.448-1.392-.148a.586.586 0 00-.272.479c-.006.24.14.476.304.666-.649.517-1.173 1.019-1.36 1.405-.207.475-.291 1.253.096 2.012.491.963 1.577 1.634 3.23 1.995 2.158.471 4.022.047 5.256-.602.687-.361 1.174-.793 1.41-1.177l.223.07c.105.032.211.064.31.1.326.112.688.097.966-.043l.015-.008c.21-.11.36-.288.427-.501.178-.576-.33-.894-.636-1.086z" fill="#fff"/></g><defs><clipPath id="prefix__clip0_1_10"><rect width="24" height="24" rx="12" fill="#fff"/></clipPath></defs></svg>