<svg fill="none" xmlns="http://www.w3.org/2000/svg"><g clip-path="url(#prefix__clip0_1_2)"><circle cx="12" cy="12" r="12" fill="#0096FA"/><path fill-rule="evenodd" clip-rule="evenodd" d="M12.586 5.752c1.84 0 3.424.57 4.555 1.558a5.163 5.163 0 011.786 3.932c.004 1.564-.743 2.933-1.905 3.85-1.16.922-2.72 1.432-4.436 1.432-1.953 0-3.763-.71-3.763-.71v2.293c.335.098.884.308.535.657h-2.64c-.346-.346.16-.548.543-.657V8.383c-.889.684-1.344 1.275-1.576 1.714.27.86-.24.818-.24.818l-.92-1.46s3.264-3.703 8.06-3.703zM8.823 7.62c.916-.65 2.402-1.052 3.602-1.05 1.458 0 2.603.552 3.377 1.389.773.84 1.194 1.957 1.198 3.257-.005 1.265-.455 2.307-1.258 3.107-.802.793-1.97 1.294-3.317 1.294h-.008c-1.498 0-2.76-.291-3.594-.702V7.62z" fill="#fff"/></g><defs><clipPath id="prefix__clip0_1_2"><path fill="#fff" d="M0 0h24v24H0z"/></clipPath></defs></svg>