<svg width="1024" height="360" viewBox="0 0 1024 360" fill="none" xmlns="http://www.w3.org/2000/svg">
<g filter="url(#filter0_d)">
<path d="M357.217 162.925C360.279 165.463 363.758 166.732 367.655 166.732C369.865 166.732 371.527 166.356 372.641 165.603C373.754 164.833 374.311 163.851 374.311 162.655C374.311 161.624 373.869 160.649 372.985 159.733C372.1 158.816 369.767 157.571 365.985 155.999C360.041 153.478 357.069 149.81 357.069 144.996C357.069 141.459 358.412 138.717 361.097 136.768C363.799 134.804 367.368 133.821 371.806 133.821C375.522 133.821 378.642 134.304 381.163 135.27V142.884C378.609 141.148 375.621 140.281 372.199 140.281C370.201 140.281 368.605 140.649 367.409 141.386C366.214 142.106 365.616 143.08 365.616 144.309C365.616 145.291 366.026 146.2 366.844 147.035C367.663 147.853 369.685 148.967 372.911 150.375C376.693 151.996 379.288 153.707 380.697 155.508C382.121 157.309 382.833 159.454 382.833 161.943C382.833 165.594 381.54 168.378 378.953 170.294C376.366 172.209 372.69 173.167 367.925 173.167C363.57 173.167 360 172.463 357.217 171.055V162.925ZM414.099 172.504H406.19V157.031C406.19 152.856 404.668 150.768 401.622 150.768C400.099 150.768 398.839 151.349 397.84 152.512C396.857 153.674 396.366 155.181 396.366 157.031V172.504H388.433V132.298H396.366V149.417H396.464C398.544 146.257 401.344 144.677 404.864 144.677C411.021 144.677 414.099 148.394 414.099 155.827V172.504ZM421.565 146.986C422.793 146.298 424.431 145.741 426.477 145.316C428.54 144.89 430.301 144.677 431.758 144.677C439.355 144.677 443.154 148.484 443.154 156.098V172.504H435.614V168.55H435.516C433.665 171.628 430.956 173.167 427.386 173.167C424.815 173.167 422.752 172.439 421.197 170.981C419.658 169.508 418.888 167.51 418.888 164.989C418.888 159.782 421.991 156.753 428.197 155.901L435.663 154.894C435.663 151.734 434.017 150.154 430.726 150.154C427.484 150.154 424.431 151.136 421.565 153.101V146.986ZM430.53 160.199C427.664 160.576 426.232 161.869 426.232 164.08C426.232 165.095 426.576 165.914 427.263 166.536C427.967 167.158 428.909 167.469 430.088 167.469C431.709 167.469 433.043 166.896 434.091 165.75C435.139 164.604 435.663 163.179 435.663 161.476V159.536L430.53 160.199ZM467.297 152.536C466.331 151.98 465.16 151.701 463.785 151.701C461.984 151.701 460.551 152.389 459.487 153.764C458.439 155.14 457.915 157.031 457.915 159.438V172.504H449.982V145.34H457.915V150.449H458.013C459.323 146.732 461.705 144.873 465.16 144.873C466.094 144.873 466.806 144.98 467.297 145.193V152.536ZM479.233 169.237V185.005H471.3V145.34H479.233V149.491H479.332C481.411 146.282 484.35 144.677 488.149 144.677C491.604 144.677 494.305 145.889 496.254 148.312C498.202 150.719 499.177 154.002 499.177 158.161C499.177 162.696 498.047 166.331 495.787 169.066C493.528 171.8 490.564 173.167 486.896 173.167C483.572 173.167 481.051 171.857 479.332 169.237H479.233ZM479.111 160.494C479.111 162.426 479.635 164.006 480.683 165.234C481.73 166.462 483.089 167.076 484.76 167.076C486.741 167.076 488.28 166.307 489.377 164.767C490.49 163.228 491.047 161.051 491.047 158.234C491.047 153.257 489.107 150.768 485.226 150.768C483.425 150.768 481.951 151.456 480.805 152.831C479.676 154.206 479.111 155.975 479.111 158.136V160.494ZM547.708 171.129C544.941 172.488 541.331 173.167 536.877 173.167C531.146 173.167 526.594 171.456 523.221 168.034C519.865 164.596 518.186 160.019 518.186 154.305C518.186 148.296 520.061 143.383 523.811 139.568C527.577 135.737 532.432 133.821 538.375 133.821C542.092 133.821 545.203 134.304 547.708 135.27V143.105C545.138 141.599 542.223 140.845 538.965 140.845C535.248 140.845 532.276 142.033 530.049 144.407C527.822 146.781 526.709 149.884 526.709 153.715C526.709 157.448 527.765 160.453 529.877 162.729C531.99 165.005 534.847 166.143 538.449 166.143C541.838 166.143 544.925 165.324 547.708 163.687V171.129ZM570.992 152.536C570.026 151.98 568.855 151.701 567.48 151.701C565.678 151.701 564.246 152.389 563.181 153.764C562.134 155.14 561.61 157.031 561.61 159.438V172.504H553.676V145.34H561.61V150.449H561.708C563.018 146.732 565.4 144.873 568.855 144.873C569.788 144.873 570.5 144.98 570.992 145.193V152.536ZM575.658 146.986C576.886 146.298 578.524 145.741 580.57 145.316C582.633 144.89 584.394 144.677 585.851 144.677C593.448 144.677 597.247 148.484 597.247 156.098V172.504H589.707V168.55H589.609C587.758 171.628 585.048 173.167 581.479 173.167C578.908 173.167 576.845 172.439 575.29 170.981C573.751 169.508 572.981 167.51 572.981 164.989C572.981 159.782 576.084 156.753 582.29 155.901L589.756 154.894C589.756 151.734 588.11 150.154 584.819 150.154C581.577 150.154 578.524 151.136 575.658 153.101V146.986ZM584.623 160.199C581.757 160.576 580.325 161.869 580.325 164.08C580.325 165.095 580.669 165.914 581.356 166.536C582.06 167.158 583.002 167.469 584.181 167.469C585.802 167.469 587.136 166.896 588.184 165.75C589.232 164.604 589.756 163.179 589.756 161.476V159.536L584.623 160.199ZM621.316 138.414C620.236 137.988 619.212 137.775 618.246 137.775C615.528 137.775 614.169 139.282 614.169 142.295V145.34H620.358V151.259H614.169V172.504H606.236V151.259H601.692V145.34H606.236V141.852C606.236 138.758 607.243 136.285 609.257 134.435C611.271 132.585 613.915 131.66 617.19 131.66C618.86 131.66 620.236 131.832 621.316 132.176V138.414ZM640.449 172.185C639.254 172.84 637.444 173.167 635.021 173.167C629.257 173.167 626.376 170.138 626.376 164.08V151.259H621.906V145.34H626.376V139.372L634.26 137.112V145.34H640.449V151.259H634.26V162.704C634.26 165.603 635.406 167.052 637.698 167.052C638.582 167.052 639.499 166.79 640.449 166.266V172.185ZM683.381 172.504H661.055V134.46H669.16V165.873H683.381V172.504ZM688.44 146.986C689.668 146.298 691.306 145.741 693.352 145.316C695.415 144.89 697.176 144.677 698.633 144.677C706.23 144.677 710.029 148.484 710.029 156.098V172.504H702.489V168.55H702.391C700.54 171.628 697.831 173.167 694.261 173.167C691.69 173.167 689.627 172.439 688.072 170.981C686.533 169.508 685.763 167.51 685.763 164.989C685.763 159.782 688.866 156.753 695.072 155.901L702.538 154.894C702.538 151.734 700.892 150.154 697.601 150.154C694.359 150.154 691.306 151.136 688.44 153.101V146.986ZM697.405 160.199C694.539 160.576 693.107 161.869 693.107 164.08C693.107 165.095 693.451 165.914 694.138 166.536C694.842 167.158 695.784 167.469 696.963 167.469C698.584 167.469 699.918 166.896 700.966 165.75C702.014 164.604 702.538 163.179 702.538 161.476V159.536L697.405 160.199ZM742.252 172.504H734.368V168.353H734.246C732.215 171.563 729.44 173.167 725.92 173.167C719.599 173.167 716.439 169.352 716.439 161.722V145.34H724.372V160.985C724.372 165.046 725.961 167.076 729.137 167.076C730.725 167.076 731.994 166.519 732.944 165.406C733.894 164.293 734.368 162.786 734.368 160.887V145.34H742.252V172.504ZM775.286 172.504H767.402V157.35C767.402 152.962 765.822 150.768 762.662 150.768C761.156 150.768 759.903 151.357 758.904 152.536C757.906 153.699 757.406 155.189 757.406 157.006V172.504H749.473V145.34H757.406V149.663H757.504C759.486 146.339 762.4 144.677 766.248 144.677C772.274 144.677 775.286 148.41 775.286 155.877V172.504ZM802.45 171.497C800.551 172.61 797.849 173.167 794.345 173.167C790.203 173.167 786.854 171.906 784.3 169.385C781.746 166.863 780.469 163.597 780.469 159.585C780.469 154.968 781.844 151.333 784.595 148.68C787.346 146.011 791.013 144.677 795.598 144.677C798.693 144.677 800.985 145.103 802.475 145.954V152.757C800.657 151.431 798.676 150.768 796.531 150.768C794.108 150.768 792.159 151.505 790.686 152.978C789.229 154.452 788.5 156.474 788.5 159.045C788.5 161.534 789.196 163.498 790.588 164.939C791.979 166.364 793.87 167.076 796.261 167.076C798.373 167.076 800.436 166.405 802.45 165.062V171.497ZM833.74 172.504H825.832V157.031C825.832 152.856 824.309 150.768 821.264 150.768C819.741 150.768 818.48 151.349 817.481 152.512C816.499 153.674 816.008 155.181 816.008 157.031V172.504H808.075V132.298H816.008V149.417H816.106C818.185 146.257 820.985 144.677 824.506 144.677C830.662 144.677 833.74 148.394 833.74 155.827V172.504ZM864.662 161.157H846.782C847.06 165.365 849.598 167.469 854.396 167.469C857.392 167.469 860.037 166.732 862.329 165.259V171.08C859.856 172.471 856.614 173.167 852.603 173.167C848.28 173.167 844.915 171.947 842.509 169.508C840.118 167.068 838.923 163.67 838.923 159.315C838.923 154.976 840.2 151.456 842.754 148.754C845.308 146.036 848.518 144.677 852.382 144.677C856.23 144.677 859.234 145.848 861.396 148.189C863.573 150.514 864.662 153.715 864.662 157.792V161.157ZM857.269 156.196C857.269 152.135 855.624 150.105 852.333 150.105C850.974 150.105 849.77 150.662 848.722 151.775C847.674 152.888 847.019 154.362 846.758 156.196H857.269ZM887.135 152.536C886.169 151.98 884.998 151.701 883.623 151.701C881.822 151.701 880.389 152.389 879.325 153.764C878.277 155.14 877.753 157.031 877.753 159.438V172.504H869.82V145.34H877.753V150.449H877.851C879.161 146.732 881.543 144.873 884.998 144.873C885.932 144.873 886.644 144.98 887.135 145.193V152.536Z" fill="#555555"/>
</g>
<g filter="url(#filter1_d)">
<path d="M357.865 196.315H367.709V194.547H355.596V191.216H383.713V194.547H371.776V196.315H381.62V210.993H377.671V209.342H371.717C371.58 210.924 371.211 212.255 370.612 213.336C374.119 214.151 378.653 214.608 384.214 214.706L381.944 218.744C375.558 218.459 370.7 217.658 367.37 216.342C365.268 217.462 362.08 218.41 357.806 219.186C357.138 218.145 356.205 216.848 355.006 215.296C358.572 214.962 361.289 214.519 363.155 213.969C361.751 212.997 360.518 211.955 359.457 210.845L361.623 209.342H357.865V196.315ZM377.671 199.469H371.776V201.384H377.671V199.469ZM361.814 201.384H367.709V199.469H361.814V201.384ZM361.814 206.189H367.709V204.273H361.814V206.189ZM377.671 206.189V204.273H371.776V206.189H377.671ZM367.606 209.342H362.507C363.637 210.393 364.993 211.277 366.574 211.995C367.105 211.317 367.449 210.433 367.606 209.342ZM394.057 204.066H400.689C400.807 202.583 400.9 200.648 400.969 198.26H395.664L397.123 200.618L394.352 202.121L392.761 198.644V219.156H388.929V190.096H392.761V196.256L393.999 195.578L395.649 198.231V194.517H401.042L401.101 190.155H404.933L404.874 194.517H412.095V204.066H414.158V207.81H405.861C407.561 211.366 410.326 213.842 414.158 215.237C413.509 216.219 412.714 217.506 411.771 219.098C407.851 217.526 404.997 214.47 403.209 209.932C402.167 213.547 399.647 216.661 395.649 219.274C394.765 217.899 393.871 216.632 392.967 215.472C396.641 213.567 399.004 211.012 400.055 207.81H394.057V204.066ZM408.322 198.26H404.815C404.835 199.813 404.756 201.748 404.579 204.066H408.322V198.26ZM384.921 204.184C385.53 201.198 385.943 198.683 386.159 196.639L388.723 196.905C388.448 199.262 388.035 201.846 387.485 204.656C386.621 204.479 385.766 204.322 384.921 204.184ZM424.709 211.184L422.322 219.171H418.844L420.539 211.184H424.709ZM448.405 196.315H458.249V194.547H446.136V191.216H474.253V194.547H462.316V196.315H472.16V210.993H468.211V209.342H462.257C462.12 210.924 461.751 212.255 461.152 213.336C464.659 214.151 469.193 214.608 474.754 214.706L472.484 218.744C466.098 218.459 461.24 217.658 457.91 216.342C455.808 217.462 452.62 218.41 448.346 219.186C447.678 218.145 446.745 216.848 445.546 215.296C449.112 214.962 451.829 214.519 453.695 213.969C452.291 212.997 451.058 211.955 449.997 210.845L452.163 209.342H448.405V196.315ZM468.211 199.469H462.316V201.384H468.211V199.469ZM452.354 201.384H458.249V199.469H452.354V201.384ZM452.354 206.189H458.249V204.273H452.354V206.189ZM468.211 206.189V204.273H462.316V206.189H468.211ZM458.146 209.342H453.047C454.177 210.393 455.533 211.277 457.114 211.995C457.645 211.317 457.989 210.433 458.146 209.342ZM475.874 214.294L475.785 210.58L481.238 210.344V207.662H475.991V203.624C476.492 202.111 477.057 199.95 477.686 197.14H475.785V193.663H478.438L479.175 190.008L482.918 190.273L482.137 193.663H487.633V197.14H481.311C480.673 199.754 480.069 202.102 479.499 204.184H481.238V198.82H484.774V204.184H487.279V207.662H484.774V210.197L487.633 210.079C487.574 211.317 487.555 212.476 487.574 213.557L484.774 213.704V219.098H481.238V213.925L475.874 214.294ZM502.694 191.334V194.547C501.721 196.06 500.567 197.47 499.231 198.776C501.078 199.729 503.067 200.805 505.199 202.003L502.871 205.363C500.68 203.88 498.484 202.504 496.283 201.237C494.122 202.799 491.622 204.165 488.783 205.334C488.095 204.135 487.329 202.947 486.484 201.768C491.435 200.039 495.208 197.759 497.801 194.93H488.282V191.334H502.694ZM486.955 214.618H493.881V209.401H488.37V205.805H503.637V209.401H498.008V214.618H504.993V218.213H486.955V214.618ZM515.249 211.184L512.862 219.171H509.384L511.079 211.184H515.249ZM538.945 196.315H548.789V194.547H536.676V191.216H564.793V194.547H552.856V196.315H562.7V210.993H558.751V209.342H552.797C552.66 210.924 552.291 212.255 551.692 213.336C555.199 214.151 559.733 214.608 565.294 214.706L563.024 218.744C556.638 218.459 551.78 217.658 548.45 216.342C546.348 217.462 543.16 218.41 538.886 219.186C538.218 218.145 537.285 216.848 536.086 215.296C539.652 214.962 542.369 214.519 544.235 213.969C542.831 212.997 541.598 211.955 540.537 210.845L542.703 209.342H538.945V196.315ZM558.751 199.469H552.856V201.384H558.751V199.469ZM542.894 201.384H548.789V199.469H542.894V201.384ZM542.894 206.189H548.789V204.273H542.894V206.189ZM558.751 206.189V204.273H552.856V206.189H558.751ZM548.686 209.342H543.587C544.717 210.393 546.073 211.277 547.654 211.995C548.185 211.317 548.529 210.433 548.686 209.342ZM592.88 191.865V194.724C591.839 196.276 590.581 197.651 589.108 198.85C590.876 199.361 593.096 199.793 595.768 200.147C595.434 201.227 595.12 202.347 594.825 203.507C591.053 202.878 588.037 202.053 585.777 201.031C583.282 202.347 580.226 203.448 576.611 204.332C576.14 203.074 575.648 201.984 575.137 201.06C577.888 200.549 580.315 199.852 582.417 198.968C581.73 198.437 581.071 197.838 580.443 197.17C579.696 197.995 578.91 198.82 578.085 199.646C577.26 198.742 576.454 197.936 575.668 197.229C575.766 197.131 575.864 197.032 575.963 196.934H570.599C570.324 197.661 570.029 198.359 569.715 199.027H574.902V202.357H572.691V205.393H575.904V208.723H572.691V212.437C573.575 211.749 574.499 211.012 575.462 210.226C575.54 211.759 575.697 213.193 575.933 214.529C573.32 216.376 571.444 217.899 570.304 219.098L568.418 216.18C568.929 215.669 569.184 214.765 569.184 213.468V208.723H566.237V205.393H569.184V202.357H567.976C567.72 202.77 567.465 203.172 567.209 203.565C566.836 201.836 566.463 200.245 566.089 198.791C567.209 196.335 568.182 193.378 569.007 189.92L572.544 190.509C572.288 191.59 572.013 192.631 571.719 193.633H576.199V196.728C578.262 194.684 580.079 192.425 581.651 189.949L585.571 190.715C585.315 191.108 585.05 191.491 584.775 191.865H592.88ZM576.316 212.319H583.655V210.875H577.849V208.399H583.655V206.955H577.554V204.243H583.655V202.475H587.487V204.243H593.322V206.955H587.487V208.399H592.998V210.875H587.487V212.319H594.53V215.443H587.487V219.039H583.655V215.443H576.316V212.319ZM585.6 197.347C586.74 196.62 587.752 195.814 588.636 194.93H582.741C583.567 195.873 584.52 196.679 585.6 197.347ZM624.445 190.244V214.765C624.445 216.425 623.9 217.531 622.81 218.081C621.719 218.641 619.258 218.881 615.427 218.803C615.152 217.27 614.817 215.944 614.425 214.824C615.299 214.873 616.252 214.898 617.283 214.898C617.932 214.898 618.497 214.893 618.978 214.883C619.459 214.863 619.823 214.696 620.069 214.382C620.314 214.058 620.437 213.586 620.437 212.967V190.244H624.445ZM596.358 210.727C599.059 207.819 601.044 205.019 602.311 202.328H596.594V198.526H602.606V195.284L597.36 195.755C597.104 194.124 596.878 192.877 596.682 192.012C601.201 191.737 605.956 191.315 610.947 190.745L611.684 194.37L606.555 194.9V198.526H612.037V202.328H606.555V205.555L607.469 204.597C608.648 205.54 610.426 207.043 612.804 209.106L609.974 211.965L606.555 208.473V219.156H602.606V208.767C601.309 211.106 599.757 213.341 597.949 215.472C597.576 214.195 597.045 212.614 596.358 210.727ZM617.107 212.083H613.216V193.044H617.107V212.083ZM632.079 190.096L636.47 190.774L635.144 194.783H640.154V200.53C641.736 197.877 643.249 194.38 644.693 190.038L648.76 191.099C648.328 192.405 647.866 193.682 647.375 194.93H654.979L654.64 211.891C654.591 213.719 654.439 214.996 654.183 215.723C653.928 216.46 653.53 217.059 652.989 217.521C652.449 217.983 651.693 218.297 650.72 218.464C649.757 218.631 647.65 218.714 644.398 218.714C644.103 216.985 643.73 215.502 643.278 214.264C644.732 214.382 646.28 214.441 647.92 214.441C648.392 214.441 648.799 214.387 649.143 214.279C649.487 214.171 649.767 214.009 649.983 213.792C650.209 213.567 650.362 213.316 650.44 213.041C650.519 212.766 650.583 211.557 650.632 209.416L650.764 203.389C650.804 201.512 650.823 199.989 650.823 198.82H645.695C645.047 200.196 644.359 201.532 643.632 202.829C642.699 202.22 641.539 201.615 640.154 201.016V218.567H636.057V216.445H631.872V218.744H627.776V194.783H630.885C631.455 192.857 631.853 191.295 632.079 190.096ZM636.057 198.644H631.872V203.683H636.057V198.644ZM631.872 212.584H636.057V207.544H631.872V212.584ZM644.781 202.357C646.196 204.047 647.719 206.1 649.35 208.517L645.636 210.993C644.143 208.537 642.718 206.444 641.363 204.715L644.781 202.357ZM659.577 193.014H669.627C669.342 192.248 669.057 191.531 668.772 190.863L673.311 189.861C673.753 190.873 674.185 191.924 674.608 193.014H684.127V203.448H663.555C663.555 209.971 662.268 215.099 659.695 218.832C658.889 217.85 657.907 216.71 656.747 215.413C658.633 212.25 659.577 208.163 659.577 203.153V193.014ZM680.149 199.852V196.61H663.555V199.852H680.149ZM664.469 218.921V206.277H683.921V218.862H679.972V217.359H668.418V218.921H664.469ZM679.972 209.902H668.418V213.734H679.972V209.902ZM698.186 204.833L701.325 212.26C702.671 209.823 703.329 205.363 703.299 198.879H700.308V194.989H703.388L703.432 189.979H707.352L707.293 194.989H715.015L714.676 211.641C714.617 213.881 714.519 215.281 714.381 215.841C714.253 216.401 713.983 216.897 713.571 217.329C713.158 217.771 712.618 218.091 711.95 218.287C711.282 218.484 709.523 218.597 706.674 218.626C706.36 217.133 706.006 215.659 705.613 214.205C706.91 214.284 707.985 214.323 708.84 214.323C709.41 214.323 709.847 214.21 710.152 213.984C710.456 213.758 710.633 213.434 710.682 213.011C710.741 212.579 710.805 211.071 710.874 208.487C710.952 205.894 711.006 202.691 711.036 198.879H707.219C707.131 203.261 706.954 206.4 706.689 208.296C706.423 210.182 705.878 212.093 705.053 214.028C704.228 215.964 703.157 217.683 701.84 219.186C700.72 218.302 699.522 217.477 698.245 216.71C698.815 216.131 699.335 215.517 699.807 214.868L691.628 215.561C690.4 215.708 689.462 215.915 688.814 216.18L686.986 212.614C688.018 211.779 689.28 208.694 690.773 203.359H687.104V199.587H700.72V203.359H695.062C694.148 206.179 693.175 208.92 692.144 211.582C693.932 211.533 695.548 211.469 696.992 211.39C696.285 209.416 695.592 207.593 694.914 205.923L698.186 204.833ZM699.689 195.932H688.371V192.16H699.689V195.932ZM719.111 191.246H730.665V199.557H719.111V191.246ZM727.069 196.551V194.252H722.707V196.551H727.069ZM732.964 191.246H744.487V199.557H732.964V191.246ZM740.892 196.551V194.252H736.589V196.551H740.892ZM732.934 218.862V209.313H739.064C735.803 208.595 733.376 207.407 731.785 205.746C730.429 207.377 727.801 208.566 723.901 209.313H730.635V218.921H727.216V217.801H722.53V218.921H719.111V209.932C718.689 209.971 718.257 210 717.815 210.02C717.697 209.077 717.49 208.075 717.196 207.014C723.247 206.857 726.907 206.012 728.174 204.479H717.579V201.473H729.589C729.677 201.021 729.741 200.53 729.781 199.999H733.907C733.858 200.52 733.789 201.011 733.7 201.473H737.679L737.208 200.323L740.98 199.852L741.658 201.473H746.108V204.479H734.511C736.603 206.1 740.587 206.955 746.462 207.043C746.128 208.144 745.873 209.155 745.696 210.079C745.283 210.069 744.88 210.049 744.487 210.02V218.921H741.069V217.801H736.353V218.862H732.934ZM741.069 212.319H736.353V214.795H741.069V212.319ZM727.216 212.319H722.53V214.795H727.216V212.319Z" fill="#555555"/>
</g>
<g filter="url(#filter2_d)">
<path d="M758.008 226.702L762.107 225.603L758.202 211.027L766.571 208.785L766.022 206.735L753.98 209.962L753.492 208.14L765.534 204.913L764.924 202.636L767.144 202.041L767.754 204.318L780.337 200.946L780.826 202.768L768.243 206.14L768.792 208.19L777.731 205.795L781.636 220.37L785.821 219.249L786.31 221.071L758.496 228.524L758.008 226.702ZM764.271 225.024L779.473 220.95L778.947 218.986L763.744 223.059L764.271 225.024ZM776.04 208.139L760.838 212.213L761.357 214.149L776.559 210.075L776.04 208.139ZM762.326 217.764L777.528 213.691L777.009 211.755L761.807 215.828L762.326 217.764ZM763.294 221.38L778.496 217.306L777.978 215.37L762.776 219.444L763.294 221.38ZM775.386 226.195L775.966 224.148C779.085 224.248 782.713 224.465 786.851 224.801L786.368 227.097C782.596 226.684 778.935 226.383 775.386 226.195ZM768.627 226.023L770.423 227.372C767.744 229.595 764.778 231.773 761.525 233.906C761.077 233.375 760.558 232.802 759.966 232.188C762.66 230.551 765.547 228.496 768.627 226.023ZM783.791 202.676L786.666 201.905C786.906 199.99 787.063 198.26 787.137 196.714L789.711 196.757C789.502 198.369 789.284 199.871 789.058 201.264L794.751 199.739L800.823 222.4L798.546 223.01L797.951 220.789L791.545 222.506L792.194 224.926L789.916 225.536L783.791 202.676ZM796.742 205.46C797.768 202.155 798.334 198.23 798.439 193.686L800.99 193.643C800.89 195.205 800.758 196.685 800.593 198.082L809.76 195.626C812.146 205.442 813.601 211.633 814.126 214.197C814.791 217.213 813.625 219.122 810.626 219.926C808.899 220.388 807.128 220.802 805.314 221.166C804.946 220.248 804.567 219.444 804.179 218.754L804.265 218.731C806.234 218.489 808.006 218.156 809.581 217.734C811.308 217.271 811.994 216.111 811.639 214.254C811.09 211.37 809.838 206.091 807.884 198.417L800.254 200.461C799.919 202.514 799.497 204.356 798.989 205.987C798.38 205.764 797.631 205.588 796.742 205.46ZM790.973 220.371L797.379 218.654L795.449 211.452L789.043 213.168L790.973 220.371ZM793.046 202.484L786.641 204.201L788.494 211.118L794.9 209.402L793.046 202.484ZM799.766 206.725L801.159 204.979C803.932 206.9 806.189 208.604 807.93 210.091L806.22 212.136C804.282 210.295 802.131 208.492 799.766 206.725ZM826.616 188.501L830.528 204.356L828.279 204.959L823.74 189.271L826.616 188.501ZM830.251 207.649C830.754 207.514 831.233 207.574 831.688 207.829C832.143 208.083 832.437 208.462 832.572 208.965C832.709 209.477 832.645 209.957 832.378 210.405C832.109 210.843 831.723 211.13 831.22 211.265C830.717 211.399 830.24 211.344 829.788 211.099C829.333 210.845 829.037 210.461 828.9 209.949C828.765 209.446 828.831 208.971 829.097 208.523C829.364 208.075 829.748 207.784 830.251 207.649Z" fill="#c97800"/>
</g>
<g filter="url(#filter3_d)">
<path fill-rule="evenodd" clip-rule="evenodd" d="M117.148 68.408H245.916V100.6H310.3V229.368H278.108V293.752H149.34V261.56H84.956V132.792H117.148V68.408ZM133.244 148.888H101.052V181.08H133.244V213.272H101.052V245.464H165.436V277.656H197.628V245.464H229.82V277.656H262.012V213.272H294.204V181.08H262.012V148.888H294.204V116.696H229.82V84.504H197.628V116.696H165.436V84.504H133.244V148.888Z" fill="#CC3F00"/>
</g>
<g filter="url(#filter4_i)">
<path d="M165.436 84.504H133.244V148.888H101.052V181.08H133.244V213.272H101.052V245.464H165.436V277.656H197.628V245.464H229.82V277.656H262.012V213.272H294.204V181.08H262.012V148.888H294.204V116.696H229.82V84.504H197.628V116.696H165.436V84.504Z" fill="#F74C00"/>
</g>
<g filter="url(#filter5_i)">
<path d="M149.34 132.792V229.368H181.532V197.176L213.724 229.368H245.916V197.176L213.724 164.984H245.916V132.792H149.34Z" fill="#CC3F00"/>
</g>
<g filter="url(#filter6_d)">
<path d="M165.436 164.984V148.888H181.532L229.82 197.176V213.272H213.724L165.436 164.984Z" fill="#F74C00"/>
</g>
<defs>
<filter id="filter0_d" x="340.973" y="115.564" width="562.258" height="85.5375" filterUnits="userSpaceOnUse" color-interpolation-filters="sRGB">
<feFlood flood-opacity="0" result="BackgroundImageFix"/>
<feColorMatrix in="SourceAlpha" type="matrix" values="0 0 0 0 0 0 0 0 0 0 0 0 0 0 0 0 0 0 127 0" result="hardAlpha"/>
<feOffset/>
<feGaussianBlur stdDeviation="8.048"/>
<feColorMatrix type="matrix" values="0 0 0 0 0 0 0 0 0 0 0 0 0 0 0 0 0 0 0.25 0"/>
<feBlend mode="normal" in2="BackgroundImageFix" result="effect1_dropShadow"/>
<feBlend mode="normal" in="SourceGraphic" in2="effect1_dropShadow" result="shape"/>
</filter>
<filter id="filter1_d" x="338.91" y="173.765" width="423.648" height="61.6057" filterUnits="userSpaceOnUse" color-interpolation-filters="sRGB">
<feFlood flood-opacity="0" result="BackgroundImageFix"/>
<feColorMatrix in="SourceAlpha" type="matrix" values="0 0 0 0 0 0 0 0 0 0 0 0 0 0 0 0 0 0 127 0" result="hardAlpha"/>
<feOffset/>
<feGaussianBlur stdDeviation="8.048"/>
<feColorMatrix type="matrix" values="0 0 0 0 0 0 0 0 0 0 0 0 0 0 0 0 0 0 0.25 0"/>
<feBlend mode="normal" in2="BackgroundImageFix" result="effect1_dropShadow"/>
<feBlend mode="normal" in="SourceGraphic" in2="effect1_dropShadow" result="shape"/>
</filter>
<filter id="filter2_d" x="737.396" y="172.405" width="111.342" height="77.5976" filterUnits="userSpaceOnUse" color-interpolation-filters="sRGB">
<feFlood flood-opacity="0" result="BackgroundImageFix"/>
<feColorMatrix in="SourceAlpha" type="matrix" values="0 0 0 0 0 0 0 0 0 0 0 0 0 0 0 0 0 0 127 0" result="hardAlpha"/>
<feOffset/>
<feGaussianBlur stdDeviation="8.048"/>
<feColorMatrix type="matrix" values="0 0 0 0 0 0 0 0 0 0 0 0 0 0 0 0 0 0 0.25 0"/>
<feBlend mode="normal" in2="BackgroundImageFix" result="effect1_dropShadow"/>
<feBlend mode="normal" in="SourceGraphic" in2="effect1_dropShadow" result="shape"/>
</filter>
<filter id="filter3_d" x="52.764" y="36.216" width="289.728" height="289.728" filterUnits="userSpaceOnUse" color-interpolation-filters="sRGB">
<feFlood flood-opacity="0" result="BackgroundImageFix"/>
<feColorMatrix in="SourceAlpha" type="matrix" values="0 0 0 0 0 0 0 0 0 0 0 0 0 0 0 0 0 0 127 0" result="hardAlpha"/>
<feOffset/>
<feGaussianBlur stdDeviation="16.096"/>
<feColorMatrix type="matrix" values="0 0 0 0 0 0 0 0 0 0 0 0 0 0 0 0 0 0 0.25 0"/>
<feBlend mode="normal" in2="BackgroundImageFix" result="effect1_dropShadow"/>
<feBlend mode="normal" in="SourceGraphic" in2="effect1_dropShadow" result="shape"/>
</filter>
<filter id="filter4_i" x="101.052" y="84.504" width="193.152" height="193.152" filterUnits="userSpaceOnUse" color-interpolation-filters="sRGB">
<feFlood flood-opacity="0" result="BackgroundImageFix"/>
<feBlend mode="normal" in="SourceGraphic" in2="BackgroundImageFix" result="shape"/>
<feColorMatrix in="SourceAlpha" type="matrix" values="0 0 0 0 0 0 0 0 0 0 0 0 0 0 0 0 0 0 127 0" result="hardAlpha"/>
<feOffset/>
<feGaussianBlur stdDeviation="4.024"/>
<feComposite in2="hardAlpha" operator="arithmetic" k2="-1" k3="1"/>
<feColorMatrix type="matrix" values="0 0 0 0 0 0 0 0 0 0 0 0 0 0 0 0 0 0 0.25 0"/>
<feBlend mode="normal" in2="shape" result="effect1_innerShadow"/>
</filter>
<filter id="filter5_i" x="149.34" y="132.792" width="96.576" height="96.576" filterUnits="userSpaceOnUse" color-interpolation-filters="sRGB">
<feFlood flood-opacity="0" result="BackgroundImageFix"/>
<feBlend mode="normal" in="SourceGraphic" in2="BackgroundImageFix" result="shape"/>
<feColorMatrix in="SourceAlpha" type="matrix" values="0 0 0 0 0 0 0 0 0 0 0 0 0 0 0 0 0 0 127 0" result="hardAlpha"/>
<feOffset/>
<feGaussianBlur stdDeviation="32.192"/>
<feComposite in2="hardAlpha" operator="arithmetic" k2="-1" k3="1"/>
<feColorMatrix type="matrix" values="0 0 0 0 0 0 0 0 0 0 0 0 0 0 0 0 0 0 0.25 0"/>
<feBlend mode="normal" in2="shape" result="effect1_innerShadow"/>
</filter>
<filter id="filter6_d" x="149.34" y="132.792" width="96.576" height="96.576" filterUnits="userSpaceOnUse" color-interpolation-filters="sRGB">
<feFlood flood-opacity="0" result="BackgroundImageFix"/>
<feColorMatrix in="SourceAlpha" type="matrix" values="0 0 0 0 0 0 0 0 0 0 0 0 0 0 0 0 0 0 127 0" result="hardAlpha"/>
<feOffset/>
<feGaussianBlur stdDeviation="8.048"/>
<feColorMatrix type="matrix" values="0 0 0 0 0 0 0 0 0 0 0 0 0 0 0 0 0 0 0.25 0"/>
<feBlend mode="normal" in2="BackgroundImageFix" result="effect1_dropShadow"/>
<feBlend mode="normal" in="SourceGraphic" in2="effect1_dropShadow" result="shape"/>
</filter>
</defs>
</svg>
